<?xml version="1.0" standalone="no"?>
<!DOCTYPE svg PUBLIC "-//W3C//DTD SVG 20010904//EN"
 "http://www.w3.org/TR/2001/REC-SVG-20010904/DTD/svg10.dtd">
<svg version="1.0" xmlns="http://www.w3.org/2000/svg"
 width="327.000000pt" height="327.000000pt" viewBox="0 0 327.000000 327.000000"
 preserveAspectRatio="xMidYMid meet">
<metadata>
Created by potrace 1.14, written by Peter Selinger 2001-2017
</metadata>
<g transform="translate(0.000000,327.000000) scale(0.100000,-0.100000)"
fill="#000000" stroke="none">
<path d="M756 3123 c-4 -8 -1 -23 6 -31 10 -12 10 -14 1 -8 -9 5 -13 1 -14
-11 0 -10 -2 -25 -4 -33 -12 -55 -12 -69 -2 -74 8 -3 8 -5 -1 -5 -7 -1 -10 -5
-7 -11 3 -5 2 -10 -4 -10 -6 0 -9 -16 -7 -35 1 -22 -3 -36 -12 -40 -19 -7 -22
-6 -19 6 1 6 -7 16 -17 22 -11 7 -27 20 -37 29 -10 10 -24 16 -31 14 -7 -1 -9
-1 -5 2 5 2 -4 17 -19 33 -15 15 -32 26 -37 22 -6 -3 -7 -1 -3 5 3 6 -3 17
-14 25 -11 7 -17 17 -13 20 3 4 0 7 -9 7 -11 0 -15 -13 -17 -51 -1 -38 2 -49
11 -44 7 4 5 0 -5 -8 -18 -15 -18 -15 0 -20 17 -4 17 -5 0 -6 -15 -1 -16 -4
-6 -22 7 -13 7 -19 1 -15 -7 4 -10 -19 -9 -69 1 -41 1 -75 -1 -75 -5 0 -48 26
-64 39 -10 8 -18 11 -18 7 0 -4 -7 0 -16 9 -9 9 -22 14 -29 11 -7 -2 -12 3
-11 11 0 9 -5 18 -13 21 -10 3 -12 0 -8 -12 4 -10 3 -15 -3 -11 -6 4 -9 12 -8
19 3 14 -63 76 -81 76 -7 0 -10 -4 -7 -9 3 -4 6 -45 7 -90 1 -45 5 -84 10 -87
5 -3 9 -10 9 -15 0 -6 -4 -8 -8 -5 -5 3 -9 -1 -9 -9 0 -8 3 -15 6 -15 3 0 5
-25 4 -56 -2 -34 1 -53 7 -49 6 3 7 -1 4 -9 -3 -9 -10 -16 -15 -16 -14 0 -124
53 -127 62 -2 4 -10 8 -18 8 -9 0 -12 -5 -8 -12 4 -7 3 -8 -5 -4 -6 4 -9 11
-6 16 5 8 -41 43 -62 46 -20 3 -15 -14 5 -19 16 -4 16 -5 -1 -6 -14 -1 -16 -5
-8 -18 5 -10 9 -22 9 -28 1 -22 14 -113 22 -160 26 -140 33 -183 36 -215 2
-19 7 -36 12 -38 5 -1 7 -14 4 -27 -5 -28 16 -124 32 -144 9 -12 8 -13 -3 -6
-11 6 -12 2 -6 -21 11 -43 13 -57 14 -77 1 -12 5 -16 13 -11 10 6 10 4 2 -7
-13 -17 6 -135 20 -122 5 4 3 -2 -3 -14 -6 -13 -8 -23 -3 -23 5 0 8 -11 7 -25
-2 -14 0 -25 4 -25 5 0 6 -12 3 -26 -4 -21 -2 -25 9 -19 11 6 11 5 2 -5 -8 -8
-9 -20 -2 -37 5 -13 8 -27 8 -31 -4 -23 2 -62 9 -59 4 3 8 -9 8 -26 1 -30 12
-124 17 -150 1 -7 9 -18 17 -25 8 -8 9 -11 3 -7 -16 7 -16 1 -4 -62 6 -26 15
-75 22 -108 6 -33 16 -66 23 -74 8 -12 8 -13 -1 -7 -8 4 -13 1 -13 -9 0 -9 4
-14 8 -11 5 3 8 -5 7 -17 -2 -20 17 -99 32 -137 3 -8 5 -18 5 -23 -3 -12 16
-8 21 6 4 9 6 9 6 0 1 -6 -3 -15 -9 -18 -6 -4 -6 -13 -1 -23 5 -9 17 -34 25
-54 12 -27 21 -36 34 -32 14 5 15 4 2 -5 -12 -9 -11 -14 8 -40 12 -17 22 -33
22 -35 0 -6 24 -37 48 -61 6 -8 12 -19 12 -25 0 -6 4 -9 9 -6 5 3 11 -3 14
-14 3 -11 13 -20 22 -20 9 0 14 -4 11 -9 -8 -13 21 -34 35 -25 8 5 9 3 4 -5
-7 -12 10 -31 74 -84 12 -9 25 -17 30 -17 5 0 12 -7 15 -16 4 -9 13 -14 22
-10 8 3 12 2 9 -4 -3 -6 1 -10 9 -10 9 0 16 -4 16 -10 0 -5 11 -12 25 -16 13
-3 30 -12 36 -20 10 -12 14 -12 20 -2 6 10 9 8 9 -6 0 -12 5 -16 16 -12 8 3
13 2 10 -2 -5 -8 82 -49 116 -56 7 -2 24 -8 38 -13 53 -22 73 -26 65 -13 -4 7
2 6 16 -3 27 -17 115 -36 199 -43 131 -11 140 -11 140 2 0 7 4 15 9 18 5 4 7
-4 3 -16 -5 -23 -5 -23 17 -4 15 14 20 15 16 5 -5 -13 3 -14 52 -9 60 7 203 3
211 -5 3 -3 11 0 19 6 7 6 13 7 13 2 0 -12 173 -4 181 9 4 7 9 7 13 0 4 -7 25
-6 64 3 31 7 74 16 95 19 24 5 35 11 31 18 -4 7 -2 8 5 4 27 -17 270 84 272
113 0 9 3 11 5 4 4 -8 15 -6 40 9 18 11 31 24 28 29 -3 5 1 6 9 3 13 -5 37 11
88 59 10 9 24 17 30 17 5 0 7 5 4 10 -3 6 -1 10 6 10 8 0 7 5 -2 18 -13 15
-12 16 3 4 20 -16 42 -6 34 15 -5 11 -2 13 10 9 12 -4 15 -2 10 9 -3 8 0 14 7
12 7 -1 11 4 9 11 -1 8 1 11 6 8 17 -10 107 108 96 126 -4 7 -3 8 4 4 10 -6
44 42 42 59 0 3 6 13 15 21 8 9 13 20 10 25 -4 5 -1 9 6 9 7 0 9 3 6 7 -4 3
-2 11 3 18 5 6 16 30 24 52 11 31 12 44 3 52 -9 9 -7 10 8 5 18 -7 19 -6 5 11
-8 10 -10 16 -4 12 8 -4 17 14 27 53 10 41 11 58 3 53 -6 -4 -5 1 3 10 7 9 10
17 7 17 -4 0 -2 10 5 21 9 17 8 20 -3 14 -10 -6 -11 -5 0 6 6 7 12 19 12 27 0
7 -6 10 -12 7 -7 -4 -5 0 5 8 10 8 17 19 16 23 -2 5 1 35 5 66 5 32 7 59 5 60
-1 2 3 13 10 26 10 19 10 26 -1 40 -7 9 -8 13 -2 9 8 -4 14 5 18 26 3 17 8 42
10 53 13 67 15 95 7 89 -5 -3 -13 -1 -16 5 -4 6 -1 9 7 8 7 -2 12 5 12 14 -1
10 2 16 6 13 16 -10 16 75 0 92 -14 15 -13 16 3 4 14 -11 17 -11 18 0 0 8 2
22 4 32 2 9 -2 17 -8 17 -9 0 -9 2 0 8 6 4 13 21 16 39 3 17 8 37 13 44 5 8 3
10 -7 4 -11 -7 -12 -6 -3 6 13 15 26 83 28 141 0 21 4 38 7 38 3 0 6 6 6 13 2
38 21 146 29 159 3 4 -1 8 -8 8 -9 0 -9 3 -2 8 16 10 25 64 9 59 -6 -3 -12 1
-12 8 0 7 6 11 14 8 7 -3 13 -1 14 3 0 5 2 23 4 39 3 17 6 44 8 61 2 17 8 37
12 44 6 9 4 11 -6 5 -12 -8 -12 -6 -1 8 17 20 23 98 9 115 -7 9 -5 11 9 5 17
-6 18 -5 4 12 -9 11 -10 16 -2 11 8 -5 12 0 12 13 0 12 0 22 -1 24 0 1 4 14
10 30 7 17 7 27 1 27 -6 0 -10 -4 -10 -10 0 -5 -7 -10 -16 -10 -8 0 -12 -4 -9
-10 3 -5 0 -7 -7 -5 -8 3 -23 -3 -35 -14 -11 -11 -24 -17 -27 -14 -3 4 -6 1
-6 -5 0 -7 -7 -12 -16 -12 -9 0 -14 -6 -11 -13 4 -10 -2 -13 -19 -9 -14 2 -24
0 -24 -7 0 -6 -7 -11 -15 -11 -8 0 -15 -4 -15 -8 0 -4 -11 -8 -25 -8 -15 0
-21 4 -16 11 4 5 8 43 9 83 1 40 4 78 7 83 4 5 1 9 -4 9 -6 0 -11 5 -11 11 0
5 4 8 9 5 5 -4 8 2 6 11 -1 10 -8 17 -15 15 -6 -1 -9 2 -5 8 3 6 10 8 15 5 5
-3 10 28 12 69 2 58 0 72 -9 64 -7 -6 -10 -15 -6 -21 3 -6 1 -7 -5 -3 -13 8
-53 -24 -46 -36 3 -4 -2 -5 -10 -2 -11 4 -16 0 -16 -11 0 -9 -4 -14 -9 -10 -6
3 -14 -3 -20 -12 -6 -10 -11 -14 -11 -10 0 4 -6 2 -14 -5 -8 -7 -12 -16 -9
-20 2 -4 -3 -5 -11 -2 -9 4 -18 -1 -22 -10 -3 -9 -10 -13 -15 -10 -5 3 -9 1
-9 -3 0 -14 -40 -13 -41 0 0 7 -1 31 -1 54 0 34 -3 41 -16 36 -15 -4 -15 -3
-2 6 19 13 19 33 0 49 -13 10 -13 11 3 6 9 -3 17 -1 17 4 0 6 -8 16 -17 21
-10 6 -12 11 -5 11 6 0 12 7 12 15 0 8 -6 15 -12 15 -10 0 -10 2 0 9 11 6 12
37 3 69 -1 1 -38 -34 -83 -80 -46 -45 -82 -86 -81 -90 2 -4 -3 -5 -11 -2 -8 3
-17 1 -21 -5 -12 -20 -20 -11 -20 22 0 23 -4 31 -15 29 -12 -3 -12 -1 -3 9 13
13 7 65 -11 88 -8 12 -8 13 2 7 10 -6 11 -1 6 21 -4 15 -10 29 -14 31 -3 1 -5
17 -3 35 4 30 3 31 -11 13 -8 -10 -13 -23 -9 -29 3 -6 1 -7 -5 -3 -6 3 -19 -7
-28 -24 -10 -16 -22 -30 -27 -30 -5 0 -5 -10 -2 -22 4 -16 3 -19 -3 -10 -7 10
-17 3 -43 -28 -19 -23 -33 -46 -32 -51 2 -5 -1 -8 -6 -6 -11 3 -112 -84 -106
-93 2 -4 -2 -7 -8 -7 -7 0 -45 -24 -85 -53 -60 -46 -69 -56 -59 -69 10 -14 10
-14 -5 -3 -14 11 -24 8 -67 -18 -28 -18 -49 -36 -46 -41 4 -5 0 -6 -8 -3 -8 3
-21 -1 -28 -8 -8 -7 -19 -14 -24 -15 -28 -5 -144 -71 -138 -78 5 -4 3 -5 -3
-2 -6 3 -35 -3 -64 -14 -37 -14 -62 -18 -84 -13 -17 4 -34 7 -38 6 -5 -1 -8 3
-8 9 0 7 -10 9 -25 7 -13 -3 -23 -2 -20 2 2 3 -15 16 -39 28 -33 16 -46 18
-55 9 -9 -9 -11 -8 -5 6 3 10 3 17 -2 15 -5 -1 -20 5 -34 14 -14 9 -32 18 -40
20 -8 2 -23 11 -34 21 -11 10 -26 15 -33 13 -7 -3 -12 -1 -10 3 2 10 -68 61
-83 61 -6 0 -10 5 -10 10 0 6 -5 10 -11 10 -6 0 -16 6 -23 13 -7 6 -28 23 -46
37 -17 13 -57 47 -88 75 -30 27 -60 49 -66 47 -6 -2 -8 0 -4 4 11 10 -31 59
-50 59 -10 0 -16 5 -16 10 1 6 -19 37 -45 70 -64 84 -68 88 -75 68z m15 -130
c13 -16 12 -17 -3 -4 -10 7 -18 15 -18 17 0 8 8 3 21 -13z m1715 -9 c1 -9 0
-13 -4 -10 -3 4 -7 14 -8 22 -1 9 0 13 4 10 3 -4 7 -14 8 -22z m224 -14 c0 -5
-5 -10 -11 -10 -5 0 -7 5 -4 10 3 6 8 10 11 10 2 0 4 -4 4 -10z m-290 -15 c0
-2 -6 -8 -13 -14 -10 -8 -14 -7 -14 2 0 8 6 14 14 14 7 0 13 -1 13 -2z m30 -5
c0 -5 -5 -10 -11 -10 -5 0 -7 5 -4 10 3 6 8 10 11 10 2 0 4 -4 4 -10z m-1830
-34 c0 -2 -8 -10 -17 -17 -16 -13 -17 -12 -4 4 13 16 21 21 21 13z m301 -13
c13 -16 12 -17 -3 -4 -10 7 -18 15 -18 17 0 8 8 3 21 -13z m1779 13 c0 -2 -8
-10 -17 -17 -16 -13 -17 -12 -4 4 13 16 21 21 21 13z m30 -40 c0 -2 -7 -7 -16
-10 -8 -3 -12 -2 -9 4 6 10 25 14 25 6z m-239 -43 c13 -16 12 -17 -3 -4 -10 7
-18 15 -18 17 0 8 8 3 21 -13z m-2210 -16 c-10 -9 -11 -8 -5 6 3 10 9 15 12
12 3 -3 0 -11 -7 -18z m709 17 c0 -8 -19 -13 -24 -6 -3 5 1 9 9 9 8 0 15 -2
15 -3z m30 2 c0 -2 -8 -10 -17 -17 -16 -13 -17 -12 -4 4 13 16 21 21 21 13z
m1419 -10 c9 -11 9 -16 -1 -22 -7 -4 -10 -4 -6 1 4 4 3 14 -3 22 -6 7 -9 13
-6 13 2 0 10 -6 16 -14z m225 -2 c3 -8 2 -12 -4 -9 -6 3 -10 10 -10 16 0 14 7
11 14 -7z m-1834 -14 c0 -5 -2 -10 -4 -10 -3 0 -8 5 -11 10 -3 6 -1 10 4 10 6
0 11 -4 11 -10z m101 -17 c13 -16 12 -17 -3 -4 -10 7 -18 15 -18 17 0 8 8 3
21 -13z m1353 -13 c-6 -6 -10 -3 -10 10 0 13 4 16 10 10 7 -7 7 -13 0 -20z
m-54 10 c0 -5 -2 -10 -4 -10 -3 0 -8 5 -11 10 -3 6 -1 10 4 10 6 0 11 -4 11
-10z m106 -2 c3 -4 -1 -5 -10 -4 -8 1 -18 5 -22 8 -3 4 1 5 10 4 8 -1 18 -5
22 -8z m264 6 c0 -8 -19 -13 -24 -6 -3 5 1 9 9 9 8 0 15 -2 15 -3z m34 -2 c3
-5 -1 -9 -9 -9 -8 0 -12 4 -9 9 3 4 7 8 9 8 2 0 6 -4 9 -8z m-2024 -16 c0 -2
-7 -7 -16 -10 -8 -3 -12 -2 -9 4 6 10 25 14 25 6z m260 -6 c0 -5 -5 -10 -11
-10 -5 0 -7 5 -4 10 3 6 8 10 11 10 2 0 4 -4 4 -10z m225 -20 c3 -6 -1 -7 -9
-4 -18 7 -21 14 -7 14 6 0 13 -4 16 -10z m1080 1 c-9 -8 -36 -10 -30 -2 2 4
11 8 20 8 8 0 13 -3 10 -6z m435 -1 c0 -5 -5 -10 -11 -10 -5 0 -7 5 -4 10 3 6
8 10 11 10 2 0 4 -4 4 -10z m155 -8 c-3 -3 -11 0 -18 7 -9 10 -8 11 6 5 10 -3
15 -9 12 -12z m-2482 -27 c-3 -9 -8 -14 -10 -11 -3 3 -2 9 2 15 9 16 15 13 8
-4z m727 11 c0 -2 -8 -10 -17 -17 -16 -13 -17 -12 -4 4 13 16 21 21 21 13z
m1845 -36 c3 -6 -1 -7 -9 -4 -18 7 -21 14 -7 14 6 0 13 -4 16 -10z m-2565 -4
c0 -2 -8 -10 -17 -17 -16 -13 -17 -12 -4 4 13 16 21 21 21 13z m160 0 c0 -2
-8 -10 -17 -17 -16 -13 -17 -12 -4 4 13 16 21 21 21 13z m720 0 c0 -2 -8 -10
-17 -17 -16 -13 -17 -12 -4 4 13 16 21 21 21 13z m71 -23 c13 -16 12 -17 -3
-4 -10 7 -18 15 -18 17 0 8 8 3 21 -13z m854 8 c-9 -8 -36 -10 -30 -2 2 4 11
8 20 8 8 0 13 -3 10 -6z m-1631 -27 c3 -8 2 -12 -4 -9 -6 3 -10 10 -10 16 0
14 7 11 14 -7z m646 12 c0 -3 -4 -8 -10 -11 -5 -3 -10 -1 -10 4 0 6 5 11 10
11 6 0 10 -2 10 -4z m976 -32 c1 -9 0 -13 -4 -10 -3 4 -7 14 -8 22 -1 9 0 13
4 10 3 -4 7 -14 8 -22z m904 10 c0 -8 -19 -13 -24 -6 -3 5 1 9 9 9 8 0 15 -2
15 -3z m-2615 -24 c3 -6 -1 -7 -9 -4 -18 7 -21 14 -7 14 6 0 13 -4 16 -10z
m2528 -15 c-3 -9 -8 -14 -10 -11 -3 3 -2 9 2 15 9 16 15 13 8 -4z m-2603 1 c0
-2 -8 -10 -17 -17 -16 -13 -17 -12 -4 4 13 16 21 21 21 13z m1643 -11 c4 -8 3
-16 -1 -19 -4 -3 -9 4 -9 15 -2 23 3 25 10 4z m38 -8 c-10 -9 -11 -8 -5 6 3
10 9 15 12 12 3 -3 0 -11 -7 -18z m-1655 -31 c0 -14 -3 -23 -7 -20 -6 3 -6 22
0 42 3 10 7 -2 7 -22z m1138 -2 c3 -8 2 -12 -4 -9 -6 3 -10 10 -10 16 0 14 7
11 14 -7z m1421 -3 c3 -5 2 -12 -3 -15 -5 -3 -9 1 -9 9 0 17 3 19 12 6z
m-2680 -39 c-3 -3 -11 0 -18 7 -9 10 -8 11 6 5 10 -3 15 -9 12 -12z m2996 -5
c-10 -9 -11 -8 -5 6 3 10 9 15 12 12 3 -3 0 -11 -7 -18z m-387 -5 c3 -5 -1 -9
-9 -9 -8 0 -12 4 -9 9 3 4 7 8 9 8 2 0 6 -4 9 -8z m-2690 -32 c-6 -6 -10 -3
-10 10 0 13 4 16 10 10 7 -7 7 -13 0 -20z m39 15 c-3 -9 -8 -14 -10 -11 -3 3
-2 9 2 15 9 16 15 13 8 -4z m3051 -3 c3 -5 -1 -9 -9 -9 -8 0 -12 4 -9 9 3 4 7
8 9 8 2 0 6 -4 9 -8z m-164 -43 c0 -5 -4 -9 -8 -9 -5 0 -9 7 -9 15 0 8 4 12 9
9 4 -3 8 -9 8 -15z m31 -6 c13 -16 12 -17 -3 -4 -10 7 -18 15 -18 17 0 8 8 3
21 -13z m-53 -38 c-3 -3 -9 2 -12 12 -6 14 -5 15 5 6 7 -7 10 -15 7 -18z
m-2928 11 c0 -2 -8 -10 -17 -17 -16 -13 -17 -12 -4 4 13 16 21 21 21 13z m30
-30 c0 -2 -8 -10 -17 -17 -16 -13 -17 -12 -4 4 13 16 21 21 21 13z m2995 -24
c-3 -3 -11 0 -18 7 -9 10 -8 11 6 5 10 -3 15 -9 12 -12z m-2911 -30 c2 -4 -4
-8 -14 -8 -10 0 -16 4 -14 8 3 4 9 8 14 8 5 0 11 -4 14 -8z m2830 -8 c3 -8 2
-12 -4 -9 -6 3 -10 10 -10 16 0 14 7 11 14 -7z m91 -14 c-3 -5 -12 -10 -18
-10 -7 0 -6 4 3 10 19 12 23 12 15 0z m-2889 -20 c0 -12 -4 -16 -9 -11 -5 5
-6 14 -3 20 10 15 12 14 12 -9z m-26 6 c0 -2 -8 -10 -17 -17 -16 -13 -17 -12
-4 4 13 16 21 21 21 13z m2859 -10 c9 -11 9 -16 -1 -22 -7 -4 -10 -4 -6 1 4 4
3 14 -3 22 -6 7 -9 13 -6 13 2 0 10 -6 16 -14z m-2819 -52 c0 -8 -19 -13 -24
-6 -3 5 1 9 9 9 8 0 15 -2 15 -3z m2790 2 c0 -2 -7 -7 -16 -10 -8 -3 -12 -2
-9 4 6 10 25 14 25 6z m71 -33 c13 -16 12 -17 -3 -4 -17 13 -22 21 -14 21 2 0
10 -8 17 -17z m-2950 -30 c13 -16 12 -17 -3 -4 -10 7 -18 15 -18 17 0 8 8 3
21 -13z m36 2 c0 -8 -4 -12 -9 -9 -5 3 -6 10 -3 15 9 13 12 11 12 -6z m2927
-3 c2 -4 -4 -8 -14 -8 -10 0 -16 4 -14 8 3 4 9 8 14 8 5 0 11 -4 14 -8z
m-2999 -22 c3 -6 -1 -7 -9 -4 -18 7 -21 14 -7 14 6 0 13 -4 16 -10z m2956 -17
c13 -16 12 -17 -3 -4 -17 13 -22 21 -14 21 2 0 10 -8 17 -17z m-2874 -40 c-14
-14 -19 -15 -29 -4 -11 10 -10 11 3 6 10 -4 20 -2 24 4 3 6 9 11 13 11 3 0 -1
-8 -11 -17z m2810 2 c0 -8 -4 -12 -9 -9 -5 3 -6 10 -3 15 9 13 12 11 12 -6z
m34 -18 c-10 -9 -11 -8 -5 6 3 10 9 15 12 12 3 -3 0 -11 -7 -18z m-2850 -24
c13 -16 12 -17 -3 -4 -10 7 -18 15 -18 17 0 8 8 3 21 -13z m9 -37 c0 -2 -8
-10 -17 -17 -16 -13 -17 -12 -4 4 13 16 21 21 21 13z m30 -30 c0 -2 -8 -10
-17 -17 -16 -13 -17 -12 -4 4 13 16 21 21 21 13z m20 -32 c0 -8 -19 -13 -24
-6 -3 5 1 9 9 9 8 0 15 -2 15 -3z m2825 -4 c-3 -5 -12 -10 -18 -10 -7 0 -6 4
3 10 19 12 23 12 15 0z m-2885 -44 c0 -2 -8 -10 -17 -17 -16 -13 -17 -12 -4 4
13 16 21 21 21 13z m-49 -29 c-10 -9 -11 -8 -5 6 3 10 9 15 12 12 3 -3 0 -11
-7 -18z m2849 -41 c0 -2 -7 -7 -16 -10 -8 -3 -12 -2 -9 4 6 10 25 14 25 6z
m-2795 -46 c-3 -5 -12 -10 -18 -10 -7 0 -6 4 3 10 19 12 23 12 15 0z m2790 -8
c-3 -3 -11 0 -18 7 -9 10 -8 11 6 5 10 -3 15 -9 12 -12z m15 -46 c0 -2 -8 -10
-17 -17 -16 -13 -17 -12 -4 4 13 16 21 21 21 13z m-13 -51 c0 -8 -4 -12 -9 -9
-5 3 -6 10 -3 15 9 13 12 11 12 -6z m-2786 -128 c-10 -9 -11 -8 -5 6 3 10 9
15 12 12 3 -3 0 -11 -7 -18z m2789 13 c0 -5 -5 -10 -11 -10 -5 0 -7 5 -4 10 3
6 8 10 11 10 2 0 4 -4 4 -10z m34 -6 c3 -8 2 -12 -4 -9 -6 3 -10 10 -10 16 0
14 7 11 14 -7z m-4 -30 c0 -8 -19 -13 -24 -6 -3 5 1 9 9 9 8 0 15 -2 15 -3z
m7 -29 c0 -8 -4 -12 -9 -9 -5 3 -6 10 -3 15 9 13 12 11 12 -6z m-2762 -43 c-3
-3 -11 0 -18 7 -9 10 -8 11 6 5 10 -3 15 -9 12 -12z m2716 -59 c12 -16 12 -17
-2 -6 -9 7 -20 9 -24 5 -5 -4 -5 -1 -1 6 9 16 11 15 27 -5z m-2755 -49 c1 -9
0 -13 -4 -10 -3 4 -7 14 -8 22 -1 9 0 13 4 10 3 -4 7 -14 8 -22z m2763 -17 c8
-10 7 -14 -2 -14 -8 0 -14 6 -14 14 0 7 1 13 2 13 2 0 8 -6 14 -13z m-29 -3
c0 -8 -19 -13 -24 -6 -3 5 1 9 9 9 8 0 15 -2 15 -3z m-2676 -146 c-3 -4 -11
-5 -19 -1 -21 7 -19 12 4 10 11 0 18 -5 15 -9z m2671 -18 c-3 -5 -12 -10 -18
-10 -7 0 -6 4 3 10 19 12 23 12 15 0z m-5 -38 c0 -5 -7 -9 -15 -9 -8 0 -12 4
-9 9 3 4 9 8 15 8 5 0 9 -4 9 -8z m-3 -77 c0 -8 -4 -15 -9 -15 -10 0 -11 14
-1 23 9 10 10 9 10 -8z m-37 -5 c0 -5 -5 -10 -11 -10 -5 0 -7 5 -4 10 3 6 8
10 11 10 2 0 4 -4 4 -10z m-2485 -259 c3 -5 2 -12 -3 -15 -5 -3 -9 1 -9 9 0
17 3 19 12 6z m2370 -21 c-3 -5 -12 -10 -18 -10 -7 0 -6 4 3 10 19 12 23 12
15 0z m-4 -37 c13 -16 12 -17 -3 -4 -10 7 -18 15 -18 17 0 8 8 3 21 -13z m-76
-83 c-3 -5 -12 -10 -18 -10 -7 0 -6 4 3 10 19 12 23 12 15 0z m-2205 -24 c0
-2 -8 -10 -17 -17 -16 -13 -17 -12 -4 4 13 16 21 21 21 13z m2161 -13 c13 -16
12 -17 -3 -4 -10 7 -18 15 -18 17 0 8 8 3 21 -13z m-2084 -48 c0 -8 -4 -12 -9
-9 -4 3 -8 9 -8 15 0 5 4 9 8 9 5 0 9 -7 9 -15z m2093 11 c0 -2 -8 -10 -17
-17 -16 -13 -17 -12 -4 4 13 16 21 21 21 13z m-2079 -59 c-10 -9 -11 -8 -5 6
3 10 9 15 12 12 3 -3 0 -11 -7 -18z m1980 0 c-10 -9 -11 -8 -5 6 3 10 9 15 12
12 3 -3 0 -11 -7 -18z m20 -34 c13 -16 12 -17 -3 -5 -9 8 -23 10 -29 6 -8 -4
-9 -3 -5 4 10 17 21 15 37 -5z m-1878 -28 c-3 -9 -8 -14 -10 -11 -3 3 -2 9 2
15 9 16 15 13 8 -4z m1751 -3 c3 -5 -1 -9 -9 -9 -8 0 -12 4 -9 9 3 4 7 8 9 8
2 0 6 -4 9 -8z m116 -18 c0 -8 -19 -13 -24 -6 -3 5 1 9 9 9 8 0 15 -2 15 -3z
m-1844 -30 c1 -9 0 -13 -4 -10 -3 4 -7 14 -8 22 -1 9 0 13 4 10 3 -4 7 -14 8
-22z m1724 22 c0 -2 -8 -10 -17 -17 -16 -13 -17 -12 -4 4 13 16 21 21 21 13z
m13 -51 c-3 -9 -8 -14 -10 -11 -3 3 -2 9 2 15 9 16 15 13 8 -4z m-128 -5 c3
-6 -1 -7 -9 -4 -18 7 -21 14 -7 14 6 0 13 -4 16 -10z m-45 -24 c0 -2 -8 -10
-17 -17 -16 -13 -17 -12 -4 4 13 16 21 21 21 13z m-49 -29 c-10 -9 -11 -8 -5
6 3 10 9 15 12 12 3 -3 0 -11 -7 -18z m-1251 -7 c0 -5 -5 -10 -11 -10 -5 0 -7
5 -4 10 3 6 8 10 11 10 2 0 4 -4 4 -10z m1136 -66 c1 -9 0 -13 -4 -10 -3 4 -7
14 -8 22 -1 9 0 13 4 10 3 -4 7 -14 8 -22z m97 11 c-3 -9 -8 -14 -10 -11 -3 3
-2 9 2 15 9 16 15 13 8 -4z m-1128 -5 c-3 -5 -12 -10 -18 -10 -7 0 -6 4 3 10
19 12 23 12 15 0z m1005 6 c0 -2 -8 -10 -17 -17 -16 -13 -17 -12 -4 4 13 16
21 21 21 13z m-129 -43 c13 -16 12 -17 -3 -4 -10 7 -18 15 -18 17 0 8 8 3 21
-13z m-810 -10 c12 -16 12 -17 -2 -6 -9 7 -20 9 -24 5 -5 -4 -5 -1 -1 6 9 16
11 15 27 -5z m93 9 c2 -4 -4 -8 -14 -8 -10 0 -16 4 -14 8 7 10 21 10 28 0z
m606 4 c0 -2 -8 -10 -17 -17 -16 -13 -17 -12 -4 4 13 16 21 21 21 13z m-73
-31 c0 -8 -4 -12 -9 -9 -5 3 -6 10 -3 15 9 13 12 11 12 -6z"/>
</g>
</svg>
